<svg width="25" height="26" viewBox="0 0 25 26" fill="none" xmlns="http://www.w3.org/2000/svg">
<circle opacity="0.15" cx="12.5" cy="12.8158" r="12.5" fill="#C7C7C7"/>
<g clip-path="url(#clip0_587_592)">
<path d="M16.375 10.3658L9.625 6.4733" stroke="#656464" stroke-width="2" stroke-linecap="round" stroke-linejoin="round"/>
<path d="M19.75 15.3158V9.3158C19.7497 9.05276 19.6803 8.79441 19.5487 8.56667C19.417 8.33894 19.2278 8.14982 19 8.0183L13.75 5.0183C13.522 4.88665 13.2633 4.81734 13 4.81734C12.7367 4.81734 12.478 4.88665 12.25 5.0183L7 8.0183C6.7722 8.14982 6.58299 8.33894 6.45135 8.56667C6.31971 8.79441 6.25027 9.05276 6.25 9.3158V15.3158C6.25027 15.5788 6.31971 15.8372 6.45135 16.0649C6.58299 16.2927 6.7722 16.4818 7 16.6133L12.25 19.6133C12.478 19.745 12.7367 19.8143 13 19.8143C13.2633 19.8143 13.522 19.745 13.75 19.6133L19 16.6133C19.2278 16.4818 19.417 16.2927 19.5487 16.0649C19.6803 15.8372 19.7497 15.5788 19.75 15.3158Z" stroke="#656464" stroke-width="2" stroke-linecap="round" stroke-linejoin="round"/>
<path d="M6.45264 8.5358L13.0001 12.3233L19.5476 8.5358" stroke="#656464" stroke-width="2" stroke-linecap="round" stroke-linejoin="round"/>
<path d="M13 19.8758V12.3158" stroke="#656464" stroke-width="2" stroke-linecap="round" stroke-linejoin="round"/>
</g>
<defs>
<clipPath id="clip0_587_592">
<rect width="18" height="18" fill="white" transform="translate(4 3.3158)"/>
</clipPath>
</defs>
</svg>
