<svg width="25" height="26" viewBox="0 0 25 26" fill="none" xmlns="http://www.w3.org/2000/svg">
<circle opacity="0.15" cx="12.5" cy="12.8158" r="12.5" fill="#C7C7C7"/>
<path d="M4.81805 16.9561C5.04562 18.1362 6.12571 19 7.37819 19C8.63501 19 9.71094 18.1341 9.94052 16.954H14.1686C14.8003 16.954 14.8003 16.0328 14.1686 16.0328C10.7049 16.0328 7.45977 16.0328 3.996 16.0349C4.19697 14.6426 5.30804 13.5221 6.74836 13.2652C7.3294 13.1654 7.2321 12.3122 6.65343 12.3122C6.24256 12.3122 5.90675 11.9895 5.90675 11.5968C5.90675 11.2149 6.25585 10.8794 6.65343 10.8794H9.33069C9.88515 10.8794 10.0221 11.1595 10.0818 11.652L10.5699 14.3962C10.6074 14.6233 10.8129 14.7826 11.0425 14.7826L15.0541 14.7847C15.3192 14.7847 15.5356 14.5767 15.5356 14.3199L14.4466 7.9251H15.2441L16.8612 12.9087C16.9384 13.1485 17.2013 13.2843 17.451 13.2143C18.0628 13.0594 18.7431 13.0678 19.3506 13.2355C19.6731 13.3267 19.9801 13.4626 20.2586 13.6345C20.791 13.9613 21.3079 13.1846 20.7777 12.8577C20.4242 12.6412 20.0332 12.4672 19.618 12.3526C18.9575 12.1658 18.3236 12.1361 17.6476 12.2338L16.055 7.32684C15.9908 7.12937 15.801 7.0021 15.5976 7.0021L12.24 7C11.6061 7 11.6061 7.92537 12.24 7.92537H13.4748L14.4888 13.8577H11.4493L11.034 11.5124C10.9081 10.5616 10.367 9.95446 9.33097 9.95446H6.65371C5.72811 9.95446 4.94393 10.7059 4.94393 11.5972C4.94393 12.0344 5.12723 12.4356 5.4211 12.7306C3.94323 13.4438 3 14.8976 3 16.4936C3 16.7504 3.21427 16.9584 3.48155 16.9584L3.52127 16.9563H4.81802L4.81805 16.9561ZM5.8076 16.9561L8.95097 16.954C8.74326 17.6163 8.1028 18.0725 7.37819 18.0725C6.65596 18.0725 6.0153 17.6184 5.8076 16.9561V16.9561ZM18.359 13.9911C16.9209 13.9911 15.7524 15.1138 15.7524 16.4934C15.7524 17.8773 16.9209 19 18.359 19C19.7993 19 20.9656 17.8773 20.9656 16.4934C20.9656 15.1117 19.7993 13.9911 18.359 13.9911ZM18.359 14.9164C19.2669 14.9164 20.0024 15.6232 20.0024 16.4934C20.0024 17.3658 19.2669 18.0725 18.359 18.0725C17.4511 18.0725 16.7155 17.3678 16.7155 16.4934C16.7155 15.6211 17.4489 14.9164 18.359 14.9164Z" fill="#656464"/>
</svg>
