<svg width="36" height="35" viewBox="0 0 36 35" fill="none" xmlns="http://www.w3.org/2000/svg">
<path d="M24.5625 13.7083L11.4375 6.13959" stroke="#C7C7C7" stroke-width="2" stroke-linecap="round" stroke-linejoin="round"/>
<path d="M31.125 23.3333V11.6667C31.1245 11.1552 30.9895 10.6528 30.7335 10.21C30.4775 9.7672 30.1096 9.39948 29.6667 9.14374L19.4583 3.31041C19.0149 3.05442 18.512 2.91965 18 2.91965C17.488 2.91965 16.9851 3.05442 16.5417 3.31041L6.33333 9.14374C5.89038 9.39948 5.52247 9.7672 5.26651 10.21C5.01054 10.6528 4.87552 11.1552 4.875 11.6667V23.3333C4.87552 23.8448 5.01054 24.3471 5.26651 24.79C5.52247 25.2328 5.89038 25.6005 6.33333 25.8562L16.5417 31.6896C16.9851 31.9456 17.488 32.0803 18 32.0803C18.512 32.0803 19.0149 31.9456 19.4583 31.6896L29.6667 25.8562C30.1096 25.6005 30.4775 25.2328 30.7335 24.79C30.9895 24.3471 31.1245 23.8448 31.125 23.3333Z" stroke="#C7C7C7" stroke-width="2" stroke-linecap="round" stroke-linejoin="round"/>
<path d="M5.26855 10.15L17.9998 17.5146L30.7311 10.15" stroke="#C7C7C7" stroke-width="2" stroke-linecap="round" stroke-linejoin="round"/>
<path d="M18 32.2V17.5" stroke="#C7C7C7" stroke-width="2" stroke-linecap="round" stroke-linejoin="round"/>
</svg>
