<svg width="33" height="33" viewBox="0 0 33 33" fill="none" xmlns="http://www.w3.org/2000/svg">
<circle cx="16.5" cy="16.5" r="16.5" fill="#F7C8B9"/>
<path fill-rule="evenodd" clip-rule="evenodd" d="M22.6945 19.7945C23.9205 20.4759 25.1469 21.1571 26.3729 21.8385C26.9007 22.1315 27.132 22.7531 26.9243 23.3201C25.8696 26.2015 22.7803 27.7223 19.874 26.6616C13.9223 24.4892 9.51048 20.0777 7.33835 14.1259C6.27754 11.2195 7.7985 8.13029 10.6798 7.07569C11.2467 6.86798 11.8685 7.09944 12.1622 7.62706C12.8427 8.85301 13.5241 10.0795 14.2053 11.3055C14.5247 11.8806 14.4495 12.5631 14.0124 13.0544C13.4401 13.6985 12.8677 14.3426 12.2953 14.986C13.5172 17.9614 16.0387 20.4828 19.014 21.7047C19.6574 21.1323 20.3015 20.5599 20.9456 19.9876C21.4374 19.5505 22.1194 19.4755 22.6945 19.7947L22.6945 19.7945Z" fill="#EB6F53"/>
</svg>
