<svg width="36" height="31" viewBox="0 0 36 31" fill="none" xmlns="http://www.w3.org/2000/svg">
<path d="M19.4966 19.1274C19.4966 20.2782 20.4284 21.21 21.5792 21.21C22.73 21.21 23.6617 20.2782 23.6617 19.1274C23.6617 17.9766 22.73 17.0448 21.5792 17.0448C20.4284 17.0448 19.4966 17.9766 19.4966 19.1274ZM22.1872 19.1274C22.1872 19.4645 21.9115 19.7355 21.5792 19.7355C21.2421 19.7355 20.9711 19.4598 20.9711 19.1274C20.9711 18.7904 21.2468 18.5193 21.5792 18.5193C21.9158 18.515 22.1872 18.7904 22.1872 19.1274Z" fill="#C7C7C7"/>
<path d="M4.52952 5.37627H30.465C30.872 5.37627 31.2 5.04824 31.2 4.64118C31.2 4.23413 30.872 3.9061 30.465 3.9061L4.52952 3.90646C4.12247 3.90646 3.79443 4.23449 3.79443 4.64155C3.79443 5.04824 4.11813 5.37627 4.52952 5.37627Z" fill="#C7C7C7"/>
<path d="M35.5 4.63259C35.5 2.23499 33.5445 0.283783 31.1382 0.283783H4.86184C3.73301 0.283783 2.60854 0.747497 1.77746 1.56125C0.963703 2.37067 0.5 3.49084 0.5 4.63259V26.3674C0.5 28.765 2.45555 30.7162 4.86184 30.7162H31.1382C32.3063 30.7162 33.4001 30.2612 34.2225 29.4387C35.045 28.6163 35.5 27.5226 35.5 26.3674V11.8818C35.5 11.8688 35.4957 11.8555 35.4957 11.8382V4.65433C35.4957 4.64567 35.5 4.64098 35.5 4.63232V4.63259ZM2.81418 2.61136C3.36559 2.06897 4.11363 1.75826 4.86174 1.75826H31.1381C32.7262 1.75826 34.0214 3.04007 34.0258 4.62396C34.0258 4.62829 34.0214 4.63263 34.0214 4.64129V8.64006C33.2513 7.95333 32.2495 7.52426 31.1381 7.52426L4.86175 7.52462C3.26927 7.52462 1.97406 6.22942 1.97406 4.63694C1.97406 3.88019 2.28044 3.1408 2.81417 2.61136H2.81418ZM34.0256 22.0061H21.6186C20.0347 22.0061 18.7443 20.7109 18.7443 19.1184C18.7443 18.344 19.0417 17.6266 19.5974 17.0839C20.1268 16.5415 20.8442 16.2438 21.6187 16.2438H34.0265L34.0256 22.0061ZM34.0256 14.77H21.6186C20.4419 14.77 19.3524 15.225 18.556 16.0388C17.7292 16.8482 17.2742 17.942 17.2742 19.1145C17.2742 21.5207 19.2254 23.4763 21.623 23.4763H34.0308V26.364C34.0308 27.1254 33.7288 27.8472 33.1864 28.3939C32.6397 28.9406 31.9176 29.2383 31.1432 29.2383H4.86224C3.26975 29.2383 1.97455 27.9478 1.97455 26.364V7.87463C2.74464 8.56136 3.75079 8.99476 4.86224 8.99476H31.1386C32.7181 8.99476 33.9999 10.2679 34.0219 11.8384V11.882C34.0219 11.8907 34.0263 11.895 34.0263 11.9041L34.0256 14.77Z" fill="#C7C7C7"/>
</svg>
